<svg width="73" height="135" viewBox="0 0 73 135" fill="none" xmlns="http://www.w3.org/2000/svg">
<path fill-rule="evenodd" clip-rule="evenodd" d="M45.1871 121.215L43.5268 137.04H30.5997L32.236 121.445C34.046 121.624 35.8521 121.713 37.6546 121.713C40.286 121.693 42.7975 121.529 45.1871 121.215Z" fill="#FFE8B9"/>
<path fill-rule="evenodd" clip-rule="evenodd" d="M48.8953 85.8797L47.5649 98.5598C45.3761 99.8258 42.2677 100.469 38.2068 100.49C36.9774 100.479 35.7296 100.385 34.4652 100.206L36.6113 79.749L37.1043 79.9566C40.0672 81.1509 42.6166 82.2763 44.7754 83.2869C46.4384 84.083 47.815 84.9473 48.8953 85.8797Z" fill="#FFE8B9"/>
<path fill-rule="evenodd" clip-rule="evenodd" d="M53.7673 39.4443L51.6577 59.5511L43.7191 56.3926C42.1304 55.7836 40.6409 55.1929 39.2479 54.6209L41.1577 36.4189C43.5445 36.4697 45.7993 36.7657 47.922 37.3068C49.9197 37.8111 51.868 38.5282 53.7673 39.4443Z" fill="#FFE8B9"/>
<path fill-rule="evenodd" clip-rule="evenodd" d="M44.9788 8.26988e-05H57.9059L56.0239 17.9374C54.8091 17.5247 53.5783 17.1604 52.332 16.8433C49.3417 16.0827 46.3511 15.6085 43.3608 15.4203L44.9788 8.26988e-05Z" fill="#FFE8B9"/>
<path fill-rule="evenodd" clip-rule="evenodd" d="M29.8931 121.163L28.2275 137.039H15.3004L17.3039 117.943C19.5478 118.789 21.8311 119.493 24.1506 120.058C26.0689 120.526 27.9831 120.894 29.8931 121.163Z" fill="#FFE8B9"/>
<path fill-rule="evenodd" clip-rule="evenodd" d="M34.3383 78.7928L32.1362 99.7819C31.3478 99.607 30.5537 99.3992 29.7544 99.1581C26.8375 98.2854 23.9896 97.0451 21.1646 95.4834C20.6871 95.2172 20.2142 94.9437 19.7462 94.6627L21.9589 73.5732C22.6359 73.8846 23.3205 74.1754 24.0125 74.4452L34.3383 78.7928Z" fill="#FFE8B9"/>
<path fill-rule="evenodd" clip-rule="evenodd" d="M38.7803 36.46L36.9747 53.6694C36.516 53.4728 36.0694 53.2787 35.6345 53.0869C33.3147 52.0534 31.4774 50.9049 30.1682 49.6418C28.8361 48.3556 28.17 46.8168 28.1471 44.9563C28.193 42.1773 29.2725 40.0643 31.4314 38.6174C33.274 37.3629 35.7189 36.6439 38.7803 36.46Z" fill="#FFE8B9"/>
<path fill-rule="evenodd" clip-rule="evenodd" d="M29.6777 4.68466e-05H42.6048L40.9963 15.3311C40.8012 15.3287 40.6061 15.3274 40.411 15.3274C35.9267 15.3463 31.7515 15.8908 27.8982 16.9607L29.6777 4.68466e-05Z" fill="#FFE8B9"/>
<path fill-rule="evenodd" clip-rule="evenodd" d="M15.0263 117.031L12.9271 137.04H0L2.8455 109.918C5.41936 111.911 8.14675 113.656 11.0129 115.144C12.3352 115.826 13.6733 116.455 15.0263 117.031Z" fill="#FFE8B9"/>
<path fill-rule="evenodd" clip-rule="evenodd" d="M19.7033 72.4468L17.5209 93.2474C16.0476 92.2533 14.6271 91.1781 13.2631 90.0181L3.7124 101.649L7.86261 62.0918C8.39556 62.8815 8.97051 63.6382 9.58817 64.3635C11.5405 66.6832 13.7453 68.6814 16.2258 70.335C17.3609 71.1023 18.5202 71.8068 19.7033 72.4468Z" fill="#FFE8B9"/>
<path fill-rule="evenodd" clip-rule="evenodd" d="M14.3775 0H27.3046L25.4446 17.728L25.4133 17.7389C20.8887 19.3466 16.9612 21.5515 13.6541 24.3765C12.9415 24.981 12.2648 25.6066 11.6232 26.2532L14.3775 0Z" fill="#FFE8B9"/>
<path fill-rule="evenodd" clip-rule="evenodd" d="M50.1818 96.2264L50.9843 88.5771C51.3635 89.4574 51.5596 90.4442 51.5725 91.5337C51.5875 93.3542 51.1197 94.9185 50.1818 96.2264Z" fill="#FFE8B9"/>
<path fill-rule="evenodd" clip-rule="evenodd" d="M61.0343 116.01L58.8278 137.041H45.9008L47.6005 120.839C49.9393 120.416 52.1525 119.836 54.2379 119.095C56.6976 118.232 58.9621 117.204 61.0343 116.01Z" fill="#FFE8B9"/>
<path fill-rule="evenodd" clip-rule="evenodd" d="M69.6349 34.0205L66.1916 66.8396C63.4389 64.7281 60.2195 62.945 56.5333 61.4905L53.9342 60.4564L56.0154 40.6199C57.8417 41.6482 59.6679 42.8717 61.4943 44.2649L69.6349 34.0205Z" fill="#FFE8B9"/>
<path fill-rule="evenodd" clip-rule="evenodd" d="M60.2778 0H73.2048L70.4895 25.8816C68.3854 24.1596 66.145 22.6452 63.7686 21.3448C61.9865 20.3697 60.1662 19.515 58.3076 18.778L60.2778 0Z" fill="#FFE8B9"/>
</svg>
